# File created by Blade
# Date/Time:  Tue Sep 30 19:36:22 2014
#---------------------------------------------------------
:version 1.10
:name HOM
:units
  mass 1.0
  length 1.000000
  angle deg
:documentation
     Acclaim Skeleton File
:root
   axis xyz
   order TX TY TZ RX RY RZ
   position 0.000000 0.000000 0.000000
   orientation 0 0 0
:bonedata
   begin
      id 1
      name Spine_dum
      direction 0.000000 1.000000 0.000000
      length 3.241213
      axis 0.0 0.0 0.0 xyz
   end
   begin
      id 2
      name LeftUpLeg_dum
      direction 1.000000 0.000000 0.000000
      length 3.434019
      axis 0.0 0.0 0.0 xyz
   end
   begin
      id 3
      name RightUpLeg_dum
      direction -1.000000 0.000000 0.000000
      length 3.434019
      axis 0.0 0.0 0.0 xyz
   end
   begin
      id 4
      name Spine
      direction 0.000000 1.000000 0.000000
      length 0.000000
      axis 0.0 0.0 0.0 xyz
      dof rx ry rz
   end
   begin
      id 5
      name Spine_dum1
      direction 0.000000 1.000000 0.000000
      length 18.382958
      axis 0.0 0.0 0.0 xyz
   end
   begin
      id 6
      name Spine_dum2
      direction 0.000000 1.000000 0.000000
      length 12.828261
      axis 0.0 0.0 0.0 xyz
   end
   begin
      id 7
      name Spine_dum3
      direction 0.000000 1.000000 0.000000
      length 12.828261
      axis 0.0 0.0 0.0 xyz
   end
   begin
      id 8
      name Head
      direction 0.000000 1.000000 0.000000
      length 4.527550
      axis 0.0 0.0 0.0 xyz
      dof rx ry rz
   end
   begin
      id 9
      name LeftShoulder
      direction 1.000000 0.000000 0.000000
      length 7.748055
      axis 0.0 0.0 -90.0 xyz
      dof rx ry rz
   end
   begin
      id 10
      name LeftArm
      direction 1.000000 0.000000 0.000000
      length 10.635614
      axis 0.0 0.0 -90.0 xyz
      dof rx ry rz
   end
   begin
      id 11
      name LeftForeArm
      direction 1.000000 0.000000 0.000000
      length 8.346755
      axis 0.0 0.0 -90.0 xyz
      dof ry rz rx
   end
   begin
      id 12
      name LeftHand
      direction 0.000000 0.000000 0.000000
      length 0.000000
      axis 0.0 0.0 -90.0 xyz
      dof rx ry rz
   end
   begin
      id 13
      name LeftHand_dum1
      direction 0.000000 0.000000 0.000000
      length 0.000000
      axis 0.0 0.0 -90.0 xyz
   end
   begin
      id 14
      name LeftHand_dum2
      direction 1.000000 0.000000 0.000000
      length 3.937000
      axis 0.0 0.0 -90.0 xyz
   end
   begin
      id 15
      name LeftHandThumb1
      direction 0.000000 0.000000 1.000000
      length 3.937000
      axis 0.0 0.0 -90.0 xyz
      dof rx rz ry
   end
   begin
      id 16
      name RightShoulder
      direction -1.000000 0.000000 0.000000
      length 7.748055
      axis 0.0 0.0 90.0 xyz
      dof rx ry rz
   end
   begin
      id 17
      name RightArm
      direction -1.000000 0.000000 0.000000
      length 10.635614
      axis 0.0 0.0 90.0 xyz
      dof rx ry rz
   end
   begin
      id 18
      name RightForeArm
      direction -1.000000 0.000000 0.000000
      length 8.346755
      axis 0.0 0.0 90.0 xyz
      dof ry rz rx
   end
   begin
      id 19
      name RightHand
      direction 0.000000 0.000000 0.000000
      length 0.000000
      axis 0.0 0.0 90.0 xyz
      dof rx ry rz
   end
   begin
      id 20
      name RightHand_dum1
      direction 0.000000 0.000000 0.000000
      length 0.000000
      axis 0.0 0.0 90.0 xyz
   end
   begin
      id 21
      name RightHand_dum2
      direction -1.000000 0.000000 0.000000
      length 3.937000
      axis 0.0 0.0 90.0 xyz
   end
   begin
      id 22
      name RightHandThumb1
      direction 0.000000 0.000000 1.000000
      length 3.937000
      axis 0.0 0.0 90.0 xyz
      dof rx rz ry
   end
   begin
      id 23
      name LeftUpLeg
      direction 0.000000 -1.000000 0.000000
      length 15.713025
      axis 0.0 0.0 0.0 xyz
      dof rx ry rz
   end
   begin
      id 24
      name LeftLeg
      direction 0.000000 -1.000000 0.000000
      length 14.435119
      axis 0.0 0.0 0.0 xyz
      dof rx ry rz
   end
   begin
      id 25
      name LeftFoot
      direction 0.000000 -0.258819 0.965926
      length 4.938895
      axis 15.0 0.0 0.0 xyz
      dof rx ry rz
   end
   begin
      id 26
      name LeftToeBase
      direction 0.000000 0.000000 1.000000
      length 2.952750
      axis 0.0 0.0 0.0 xyz
      dof rx ry rz
   end
   begin
      id 27
      name RightUpLeg
      direction 0.000000 -1.000000 0.000000
      length 15.713025
      axis 0.0 0.0 0.0 xyz
      dof rx ry rz
   end
   begin
      id 28
      name RightLeg
      direction 0.000000 -1.000000 0.000000
      length 14.435119
      axis 0.0 0.0 0.0 xyz
      dof rx ry rz
   end
   begin
      id 29
      name RightFoot
      direction 0.000000 -0.258819 0.965926
      length 4.938895
      axis 15.0 0.0 0.0 xyz
      dof rx ry rz
   end
   begin
      id 30
      name RightToeBase
      direction 0.000000 0.000000 1.000000
      length 2.952750
      axis 0.0 0.0 0.0 xyz
      dof rx ry rz
   end
:hierarchy
   begin
      root Spine_dum LeftUpLeg_dum RightUpLeg_dum
      Spine_dum Spine
      LeftUpLeg_dum LeftUpLeg
      RightUpLeg_dum RightUpLeg
      Spine Spine_dum1 Spine_dum2 Spine_dum3
      Spine_dum1 Head
      Spine_dum2 LeftShoulder
      Spine_dum3 RightShoulder
      LeftShoulder LeftArm
      LeftArm LeftForeArm
      LeftForeArm LeftHand
      LeftHand LeftHand_dum1 LeftHand_dum2
      LeftHand_dum1 LeftHandThumb1
      RightShoulder RightArm
      RightArm RightForeArm
      RightForeArm RightHand
      RightHand RightHand_dum1 RightHand_dum2
      RightHand_dum1 RightHandThumb1
      LeftUpLeg LeftLeg
      LeftLeg LeftFoot
      LeftFoot LeftToeBase
      RightUpLeg RightLeg
      RightLeg RightFoot
      RightFoot RightToeBase
   end

# File created by Blade
# Date/Time:  Tue Sep 23 19:18:47 2014
# Frame Rate: 120.000 fps
#------------------------------------------------------
:FULLY-SPECIFIED
:DEGREES
981
root -0.396634 33.923518 1.742237 46.988717 20.422084 -25.628392
Spine -47.089510 -14.662230 31.815158
Head 0.355744 -13.778987 23.617651
LeftShoulder -11.077719 38.787915 28.077674
LeftArm 61.514650 -14.111911 -77.275293
LeftForeArm 3.997238 -0.000000 91.870283
LeftHand -57.934179 0.000000 14.964310
LeftHandThumb1 -26.253704 0.000000 33.147579
RightShoulder -33.514210 -48.131215 9.852245
RightArm 42.122351 25.276060 97.694750
RightForeArm 86.706590 -0.000000 -3.485218
RightHand 16.193644 0.000000 11.184997
RightHandThumb1 -24.326973 -0.000000 -32.862282
LeftUpLeg -56.846678 14.777094 17.243831
LeftLeg 11.714966 -0.000000 -0.000000
LeftFoot -6.652774 -2.568164 3.353736
LeftToeBase 1.062824 -0.000000 -0.000000
RightUpLeg -39.840787 -2.568789 -25.984828
RightLeg 112.967118 -0.000000 -0.000000
RightFoot 40.634466 7.944947 12.638097
RightToeBase 31.364582 -0.000000 -0.000000
982
root -0.389196 33.927789 1.753801 46.982888 20.518271 -25.804079
Spine -47.167115 -14.857761 32.157269
Head 0.359419 -14.011701 23.812415
LeftShoulder -10.972679 38.725965 28.125544
LeftArm 61.622894 -14.122361 -77.369935
LeftForeArm 4.044067 -0.000000 91.965363
LeftHand -57.980258 -0.000000 13.712345
LeftHandThumb1 -26.253704 0.000000 33.147579
RightShoulder -33.690247 -48.136879 10.020804
RightArm 42.051277 25.557811 97.824307
RightForeArm 87.351245 -0.000000 -3.574936
RightHand 16.118737 -0.000000 11.538970
RightHandThumb1 -24.326973 -0.000000 -32.862282
LeftUpLeg -56.878052 14.851830 17.341443
LeftLeg 11.684420 -0.000000 -0.000000
LeftFoot -6.640646 -2.398694 3.632650
LeftToeBase 0.944002 -0.000000 -0.000000
RightUpLeg -39.430224 -2.527798 -25.859891
RightLeg 113.889954 -0.000000 -0.000000
RightFoot 41.178420 8.078961 12.806695
RightToeBase 31.514186 -0.000000 -0.000000
983
root -0.381573 33.932235 1.759747 46.986095 20.570078 -26.030456
Spine -47.198716 -14.952097 32.472912
Head 0.272403 -14.212124 24.033680
LeftShoulder -10.846465 38.620840 28.199574
LeftArm 61.664600 -14.094748 -77.207331
LeftForeArm 3.621401 -0.000000 92.032524
LeftHand -57.591414 -0.000000 13.502549
LeftHandThumb1 -26.253704 0.000000 33.147579
RightShoulder -33.900874 -48.074357 10.169002
RightArm 41.855511 25.727345 97.813313
RightForeArm 88.016394 -0.000000 -3.612989
RightHand 16.012168 0.000000 12.126787
RightHandThumb1 -24.326973 -0.000000 -32.862282
LeftUpLeg -56.937746 14.983497 17.463446
LeftLeg 11.706496 -0.000000 -0.000000
LeftFoot -6.650425 -2.235326 3.917055
LeftToeBase 0.779254 -0.000000 -0.000000
RightUpLeg -39.115010 -2.384203 -25.720417
RightLeg 114.780029 -0.000000 -0.000000
RightFoot 41.734365 7.983061 13.370140
RightToeBase 32.417886 -0.000000 -0.000000
984
root -0.379185 33.938050 1.774062 47.029045 20.684434 -26.238720
Spine -47.321700 -15.081446 32.844378
Head 0.222312 -14.426236 24.235910
LeftShoulder -10.765580 38.587379 28.265744
LeftArm 61.797062 -14.036799 -77.099432
LeftForeArm 3.437219 -0.000000 92.074168
LeftHand -57.451934 -0.000000 12.875984
LeftHandThumb1 -26.253704 0.000000 33.147579
RightShoulder -34.220120 -48.093294 10.423690
RightArm 42.090955 26.390469 98.313306
RightForeArm 87.990207 -0.000000 -3.855896
RightHand 15.797914 -0.000000 12.816746
RightHandThumb1 -24.326973 -0.000000 -32.862282
LeftUpLeg -57.047212 15.097364 17.616234
LeftLeg 11.741793 -0.000000 -0.000000
LeftFoot -6.658942 -2.156559 4.133351
LeftToeBase 0.691838 -0.000000 -0.000000
RightUpLeg -38.773388 -2.339297 -25.445534
RightLeg 115.637669 -0.000000 -0.000000
RightFoot 42.304801 8.207557 13.370555
RightToeBase 32.512380 -0.000000 -0.000000
985
root -0.379443 33.943981 1.786723 47.053325 20.815358 -26.452503
Spine -47.417694 -15.227351 33.217514
Head 0.135312 -14.622988 24.444854
LeftShoulder -10.623010 38.564247 28.391960
LeftArm 61.906930 -14.010845 -76.972581
LeftForeArm 3.339182 -0.000000 92.164603
LeftHand -57.337398 -0.000000 12.368940
LeftHandThumb1 -26.253704 0.000000 33.147579
RightShoulder -34.545386 -48.139746 10.686325
RightArm 42.054328 26.492307 98.319798
RightForeArm 88.728641 -0.000000 -3.902779
RightHand 16.655405 0.000000 12.571391
RightHandThumb1 -24.326973 -0.000000 -32.862282
LeftUpLeg -57.161400 15.195941 17.812735
LeftLeg 11.818655 -0.000000 -0.000000
LeftFoot -6.722620 -2.111306 4.326371
LeftToeBase 0.757608 -0.000000 -0.000000
RightUpLeg -38.410359 -2.215671 -25.107229
RightLeg 116.467795 -0.000000 -0.000000
RightFoot 42.807044 8.592024 13.285479
RightToeBase 32.952536 -0.000000 -0.000000
986
root -0.379761 33.948066 1.798976 47.063694 20.885351 -26.683163
Spine -47.475315 -15.347177 33.556924
Head 0.055592 -14.776618 24.654906
LeftShoulder -10.551106 38.513977 28.529267
LeftArm 62.019202 -13.891030 -76.867550
LeftForeArm 3.239378 -0.000000 92.204596
LeftHand -57.241676 0.000000 11.940946
LeftHandThumb1 -26.253704 0.000000 33.147579
RightShoulder -34.762154 -48.100047 10.878372
RightArm 41.644778 26.189192 97.756046
RightForeArm 89.830659 -0.000000 -3.849899
RightHand 15.166226 -0.000000 14.166832
RightHandThumb1 -24.326973 -0.000000 -32.862282
LeftUpLeg -57.299588 15.431783 17.885741
LeftLeg 11.943198 -0.000000 -0.000000
LeftFoot -6.724656 -2.252750 4.414205
LeftToeBase 0.413908 -0.000000 -0.000000
RightUpLeg -38.076784 -2.039017 -24.772670
RightLeg 117.261099 -0.000000 -0.000000
RightFoot 43.378855 8.764035 13.300947
RightToeBase 33.339812 -0.000000 -0.000000
